<svg width="33" height="32" viewBox="0 0 33 32" fill="none" xmlns="http://www.w3.org/2000/svg">
<path d="M1.24335 16C1.24335 12.2146 1.24441 9.4259 1.53178 7.28845C1.81722 5.16538 2.37686 3.75989 3.44005 2.6967C4.50323 1.63351 5.90873 1.07387 8.0318 0.788435C10.1692 0.501062 12.958 0.5 16.7433 0.5C20.5287 0.5 23.3174 0.501062 25.4549 0.788435C27.578 1.07387 28.9835 1.63351 30.0466 2.6967C31.1098 3.75989 31.6695 5.16538 31.9549 7.28845C32.2423 9.4259 32.2433 12.2146 32.2433 16C32.2433 19.7854 32.2423 22.5741 31.9549 24.7116C31.6695 26.8346 31.1098 28.2401 30.0466 29.3033C28.9835 30.3665 27.578 30.9261 25.4549 31.2116C23.3174 31.4989 20.5287 31.5 16.7433 31.5C12.958 31.5 10.1692 31.4989 8.0318 31.2116C5.90873 30.9261 4.50323 30.3665 3.44005 29.3033C2.37686 28.2401 1.81722 26.8346 1.53178 24.7116C1.24441 22.5741 1.24335 19.7854 1.24335 16Z" stroke="black"/>
<circle cx="16.7433" cy="16" r="7.5" stroke="black"/>
<circle cx="26.7433" cy="7" r="2" fill="black"/>
</svg>
