<svg width="44" height="32" viewBox="0 0 44 32" fill="none" xmlns="http://www.w3.org/2000/svg">
<path d="M28.3696 16.0564L18.3737 22.3822L18.2379 10.1377L28.3696 16.0564Z" fill="black"/>
<path d="M0.5 9.99999C0.5 7.62884 0.501062 5.90077 0.6786 4.58026C0.854204 3.27414 1.19417 2.44187 1.81802 1.81802C2.44187 1.19417 3.27414 0.854204 4.58027 0.6786C5.90077 0.501062 7.62884 0.5 10 0.5H33.7434C36.1145 0.5 37.8426 0.501062 39.1631 0.6786C40.4692 0.854204 41.3015 1.19417 41.9253 1.81802C42.5492 2.44187 42.8892 3.27414 43.0648 4.58026C43.2423 5.90077 43.2434 7.62884 43.2434 10V21.8904C43.2434 24.2616 43.2423 25.9896 43.0648 27.3102C42.8892 28.6163 42.5492 29.4485 41.9253 30.0724C41.3015 30.6962 40.4692 31.0362 39.1631 31.2118C37.8426 31.3894 36.1145 31.3904 33.7434 31.3904H9.99999C7.62883 31.3904 5.90077 31.3894 4.58026 31.2118C3.27414 31.0362 2.44187 30.6962 1.81802 30.0724C1.19417 29.4485 0.854204 28.6163 0.6786 27.3102C0.501062 25.9896 0.5 24.2616 0.5 21.8904V9.99999Z" stroke="black"/>
</svg>
